<svg xmlns="http://www.w3.org/2000/svg" viewBox="0 0 3788.2 4227.31"><defs><style>.cls-1{fill:#fff;}</style></defs><g id="Camada_2" data-name="Camada 2"><g id="Camada_4" data-name="Camada 4"><path class="cls-1" d="M3164.57,815.49c-220.66-133.16-485.52-210.75-770.37-210.75H1200.26a24,24,0,0,1-22.48-15.58l-104.21-369.6C1021.66,78.14,908.3,41.09,832.19,26.41a534.06,534.06,0,0,0-92.08-9.35L16.88,0A16.68,16.68,0,0,0,1.29,23.11L221.94,493.4a31.25,31.25,0,0,0,29,19.63H575.58a27.52,27.52,0,0,1,26.59,20.18C798.43,1210,826.5,1858.06,835.12,2530.67v436.72A168.57,168.57,0,0,0,1003.68,3136H2394.2c284.85,0,549.71-77.59,770.37-210.75,375.83-226.71,623.63-614.47,623.63-1054.86S3540.4,1042.2,3164.57,815.49Zm-687.83,1761-971.16,55a61.31,61.31,0,0,1-61.07-55.77l-68.3-1209.84c0-403.53,1118.87-220.11,1118.87-220.11,605.29,91.72,733.69,435.08,733.69,715.35S3063.69,2558.18,2476.74,2576.52Z"/><path class="cls-1" d="M1089.56,3273.52c-3.24,0-6.59,0-9.84.1v-.1Z"/><path class="cls-1" d="M3234.73,3823.79c0,222.82-180.71,403.52-403.53,403.52-181.69,0-335.42-120.17-385.91-285.42H1457.13c-50.49,165.25-204.22,285.42-385.91,285.42-222.82,0-403.53-180.7-403.53-403.52,0-219.58,175.39-398.22,393.69-403.43,3.25-.1,6.59-.1,9.84-.1h1760C3054,3420.26,3234.73,3601,3234.73,3823.79Z"/><path class="cls-1" d="M2788.56,1855.37c0,145.68-85.81,362.3-390.91,371.84l-504.84,28.6a31.92,31.92,0,0,1-31.75-29L1825.59,1598c0-209.76,581.6-114.42,581.6-114.42C2721.82,1531.21,2788.56,1709.69,2788.56,1855.37Z"/></g></g></svg>